<svg version="1.2" xmlns="http://www.w3.org/2000/svg" viewBox="0 0 60 60" width="60" height="60"><style>.a{fill:#c49957}</style><path class="a" d="m52.8 8.4c-1.6-1.6-4-2.3-7.1-2.1l1.2-0.9q0.2-0.1 0.3-0.2 0.1-0.2 0.1-0.4 0-0.2 0-0.3-0.1-0.2-0.2-0.4-0.1-0.1-0.3-0.2-0.1-0.1-0.3-0.1-0.2-0.1-0.4 0-0.1 0-0.3 0.1l-4.5 3.3q-0.2 0.2-0.3 0.5-0.1 0.2 0 0.5 0 0.2 0.2 0.4 0.2 0.2 0.4 0.3l5.4 1.6q0.3 0.1 0.7-0.1 0.3-0.2 0.4-0.6 0.1-0.3-0.1-0.7-0.1-0.3-0.5-0.4l-1.6-0.5c8-0.4 8.6 5.9 5.4 13.9-9.9-22.4-43.1-16.5-44.5 8.2-0.1 2.6 0.2 5.2 1 7.6-4.5 9.6-4.1 18 5.4 18.3 3.5-0.1 7-1.1 10.1-2.7 2.2 0.6 4.4 1 6.7 1 15.3 0.2 26.8-15.4 22.2-29.9 3.5-7.2 3.7-13.1 0.6-16.2zm-3.6 13.5l-14.1-1c-1.3-0.1-2.9-0.4-3.1-1.4-0.1-0.6 0.1-1.4-0.1-2.2-0.7-2.7-3.9-2.9-6.1-2.3-2.5 0.6-5.4-0.1-7-1.9 10.5-6.7 25.3-2.2 30.4 8.8zm-40.5 9.1c2.4-1.1 4.6-2.8 7.1-3.4 5.6-1 9.4 2.2 13.5 5.1 1.3 1 2.9 2.5 2.4 3.8-0.3 0.8-1.2 1.2-2.6 1.6q-1.6 0.5-2.9 1.4c-1.4 1.2-1.8 3-2.4 4.6-0.9 2.2-2.3 4.2-4.1 5.9-4.8-2.7-8.4-7.1-10-12.3-0.8-2.2-1.1-4.4-1-6.7zm-0.2 21.8c-2.2-2.3-2.1-6.8 0.2-12.3 2.4 5.4 6.7 9.7 12.1 12.1-5.6 2.3-10.1 2.4-12.3 0.2zm14.7-1.3q-0.9-0.3-1.7-0.7c1.8-1.7 3.1-3.8 4-6.1 0.5-1.3 0.9-2.9 1.9-3.7q1.1-0.7 2.3-1.1c1.4-0.5 3.1-1.1 3.7-2.7q1.1-2.9-3-6.1c-4.4-3.1-8.7-6.6-15-5.3-2.4 0.5-4.4 2-6.6 3.1 0.3-2.9 1.3-5.7 2.7-8.3 1.5-2.5 3.4-4.7 5.8-6.5 0.9 1.1 2.1 1.9 3.4 2.4 1.4 0.5 2.8 0.7 4.2 0.5 1.6-0.2 4.4-1.2 5.2 0.8-0.3 3.1 0.7 4.6 4.8 5l15.1 1.1q0.1 0.2 0.2 0.5c-3 5.8-6.9 11-11.5 15.5-4.6 4.7-9.8 8.5-15.5 11.6zm6.8 1.1q-2.1 0-4.2-0.4c5.2-3 10-6.7 14.2-10.9 4.3-4.3 7.9-9 10.9-14.2 2.7 13-7.6 25.6-20.9 25.5z"/></svg>