<svg version="1.2" xmlns="http://www.w3.org/2000/svg" viewBox="0 0 60 60" width="60" height="60"><style>.a{fill:#c49957}</style><path class="a" d="m6.6 17.8h7.9c4-0.6 1.1-5.4-1.1-6.3 0.6-0.6 0.9-1.3 1.1-2.1 0.2-0.8 0.1-1.6-0.2-2.3-0.3-0.8-0.8-1.4-1.5-1.8-0.7-0.5-1.4-0.7-2.2-0.7-0.8 0-1.6 0.2-2.3 0.7-0.6 0.4-1.1 1-1.4 1.8-0.4 0.7-0.4 1.5-0.3 2.3 0.2 0.8 0.6 1.5 1.1 2.1-2.2 0.9-5 5.7-1.1 6.3zm6.1-9.2c0 0.6-0.2 1.1-0.6 1.5-0.4 0.4-1 0.6-1.5 0.6-0.6 0-1.1-0.2-1.5-0.6-0.4-0.4-0.7-0.9-0.7-1.5 0-0.5 0.3-1.1 0.7-1.5 0.4-0.4 0.9-0.6 1.5-0.6 0.5 0 1.1 0.2 1.5 0.6 0.4 0.4 0.6 1 0.6 1.5zm-2.1 4c0.9 0 1.8 0.3 2.6 0.9 0.7 0.6 1.2 1.4 1.4 2.3l-0.1 0.1h-7.9l-0.1-0.1c0.2-0.9 0.7-1.7 1.5-2.3 0.7-0.6 1.6-0.9 2.6-0.9z"/><path class="a" d="m43.6 53q-0.1 0.4 0 0.9 0.1 0.4 0.4 0.8 0.2 0.3 0.6 0.5 0.4 0.2 0.9 0.2h7.9c4-0.5 1.1-5.4-1.1-6.3 0.6-0.6 0.9-1.3 1.1-2.1 0.2-0.7 0.1-1.5-0.2-2.3-0.3-0.7-0.8-1.3-1.5-1.8-0.7-0.4-1.4-0.7-2.2-0.7-0.8 0-1.6 0.3-2.3 0.7-0.6 0.5-1.1 1.1-1.4 1.8-0.3 0.8-0.4 1.6-0.3 2.3 0.2 0.8 0.6 1.5 1.1 2.1q-1.1 0.6-1.9 1.6-0.8 1-1.1 2.3zm8-6.7c0 0.5-0.2 1.1-0.6 1.5-0.4 0.3-1 0.6-1.5 0.6-0.6 0-1.1-0.3-1.5-0.6-0.4-0.4-0.7-1-0.7-1.5 0-0.6 0.3-1.2 0.7-1.5 0.4-0.4 0.9-0.7 1.5-0.7 0.5 0 1.1 0.3 1.5 0.7 0.4 0.3 0.6 0.9 0.6 1.5zm-2.1 4c0.9 0 1.8 0.3 2.6 0.9 0.7 0.6 1.2 1.4 1.4 2.3q0 0 0 0 0 0-0.1 0h-7.9-0.1c0.2-1 0.7-1.8 1.5-2.3 0.7-0.6 1.6-0.9 2.6-0.9z"/><path class="a" d="m14.4 36.5c4.4 10.9 19.1 14 27.5 5.5 10.7-10.6 3.2-28.6-11.6-28.9-11.9-0.5-20.8 12.4-15.9 23.4zm20.4 7.7c1.2-1.3 2-2.9 2.6-4.6q1.3 0.7 2.5 1.7c-1.5 1.3-3.2 2.3-5.1 2.9zm10.3-14.3c0 3.8-1.4 7.4-3.9 10.1q-1.5-1.3-3.2-2.2c1.3-5.1 1.3-10.5-0.1-15.6q1.8-0.9 3.3-2.3c2.5 2.8 3.9 6.3 3.9 10zm-5.2-11.3q-1.2 1.1-2.5 1.8c-0.6-1.6-1.4-3.2-2.4-4.6 1.8 0.7 3.4 1.6 4.9 2.8zm-8.9-3.5c2.5 0.9 3.6 3.4 4.7 6.1-1.5 0.7-3.1 1-4.7 1.1zm0 9.2c1.8-0.1 3.5-0.5 5.2-1.2 0.6 2.2 0.9 4.5 0.9 6.8q-0.1 3.6-0.9 7.1c-1.6-0.6-3.4-1-5.2-1.1zm4.7 14.6c-1 2.7-2.3 5.1-4.7 6.1v-7.3q2.4 0.2 4.7 1.2zm-15.6 2.5q1.2-1 2.5-1.8 0.9 2.4 2.3 4.5 0.1 0.1 0.2 0.2c-1.8-0.6-3.5-1.6-5-2.9zm9 3.5c-1.1-0.3-2-1-2.6-1.9q-1.4-2-2.2-4.2c1.5-0.7 3.1-1 4.8-1.1zm0-9.1c-1.8 0.1-3.6 0.5-5.3 1.1-0.7-2.9-1-5.9-0.8-8.9 0.7-7.4 0.2-4 6.1-3.8zm0-20.7v7.3c-1.7-0.1-3.3-0.5-4.8-1.1 1.1-3 2.7-5.6 4.8-6.2zm-3.9 0.7c-1.1 1.4-2 3-2.6 4.7q-1.3-0.7-2.5-1.8c1.5-1.3 3.2-2.3 5.1-2.9zm-6.4 4.2q1.5 1.4 3.3 2.3-0.8 2.8-1 5.7c-0.2 3.3 0.1 6.6 0.9 9.8q-1.7 0.9-3.2 2.3c-1.1-1.3-2-2.7-2.6-4.2-1.2-2.6-1.5-5.5-1-8.3 0.4-2.8 1.7-5.4 3.6-7.6z"/><path class="a" d="m20.9 10.4c15.8-7.4 33.5 6.3 30.4 23.4l-0.6-2.4q0-0.4-0.4-0.6-0.3-0.2-0.7-0.1-0.3 0.1-0.5 0.4-0.3 0.3-0.2 0.7l1.4 6.2q0 0.2 0.2 0.4 0.2 0.2 0.4 0.2 0.2 0.1 0.5 0.1 0.2-0.1 0.4-0.2 0.1-0.1 0.1-0.1l4.1-4.8q0.3-0.3 0.2-0.7 0-0.4-0.3-0.6-0.3-0.3-0.7-0.3-0.3 0.1-0.6 0.4l-1.4 1.6c3.3-18.6-16-33.4-33.1-25.3q-0.4 0.2-0.5 0.5-0.1 0.4 0 0.7 0.2 0.4 0.5 0.5 0.4 0.1 0.8 0z"/><path class="a" d="m5.4 27.7l1.4-1.7c-3.3 18.4 16.1 33.5 33.1 25.3q0.4-0.2 0.5-0.5 0.1-0.4 0-0.7-0.2-0.4-0.5-0.5-0.4-0.1-0.7 0c-15.8 7.5-33.7-6.5-30.5-23.4l0.5 2.5q0.1 0.3 0.5 0.5 0.3 0.2 0.7 0.1 0.3 0 0.5-0.4 0.3-0.3 0.2-0.7l-1.4-6.1q0-0.2-0.2-0.4-0.1-0.2-0.3-0.3-0.3-0.1-0.5 0-0.2 0-0.4 0.1-0.1 0.1-0.2 0.2l-4.1 4.8q-0.3 0.3-0.2 0.7 0 0.3 0.3 0.6 0.3 0.2 0.7 0.2 0.3 0 0.6-0.3z"/></svg>